<svg 
  version="1.0" 
  xmlns="http://www.w3.org/2000/svg"
 width="2048.000000pt" 
 height="2048.000000pt" 
 viewBox="0 0 2048.000000 2048.000000"
 preserveAspectRatio="xMidYMid meet"
>
<g transform="translate(0.000000,2048.000000) scale(0.100000,-0.100000)" fill="#ffffff" stroke="none">
<path d="M10185 15285 c-73 -26 -137 -120 -155 -226 -27 -169 -19 -682 13
-779 8 -25 20 -64 26 -88 13 -47 60 -106 102 -128 15 -7 46 -14 69 -14 23 0
54 7 69 14 42 22 89 81 102 128 6 24 18 63 26 88 32 97 40 610 13 779 -28 167
-147 269 -265 226z"/>
<path d="M9671 14849 c-152 -32 -326 -43 -494 -30 -735 54 -1049 37 -1537 -81
-139 -33 -445 -131 -466 -149 -25 -21 -15 -29 39 -29 65 0 123 -20 143 -48 8
-12 23 -22 33 -22 13 0 17 -8 17 -34 0 -25 14 -55 50 -107 l49 -72 -1 -91 c0
-91 -22 -216 -70 -411 -34 -136 -132 -431 -147 -443 -6 -5 -23 -13 -37 -17
-14 -4 -36 -17 -48 -29 -51 -46 -63 -103 -40 -189 l11 -44 -96 -180 c-53 -98
-114 -218 -136 -264 -70 -153 -156 -407 -246 -729 -14 -52 -102 -277 -195
-500 -186 -448 -491 -1184 -683 -1645 -68 -165 -148 -359 -177 -431 -51 -126
-54 -131 -94 -150 -73 -34 -111 -154 -69 -224 15 -26 52 -51 93 -63 9 -3 94
-172 194 -388 946 -2029 1634 -3493 1823 -3879 124 -255 142 -298 133 -318
-15 -33 -12 -98 5 -133 33 -63 121 -88 179 -50 95 63 87 205 -14 245 -51 20
-58 20 -103 -3 -45 -23 -28 -46 -135 194 -156 353 -531 1162 -1397 3020 -285
611 -539 1156 -565 1213 l-47 102 38 39 c35 35 39 44 39 90 0 66 -19 111 -60
143 l-33 26 120 283 c66 156 295 704 509 1218 l389 934 7 -129 c4 -71 16 -173
27 -228 12 -54 21 -102 21 -107 0 -4 -14 -16 -31 -26 -44 -26 -69 -72 -69
-127 0 -58 21 -101 60 -121 17 -9 30 -18 30 -21 0 -3 -72 -249 -159 -547 -88
-298 -198 -677 -246 -842 -87 -300 -87 -300 -130 -342 -50 -48 -64 -94 -46
-153 13 -43 58 -87 99 -96 15 -3 32 -7 37 -9 8 -2 246 -581 275 -670 5 -16 21
-106 35 -200 32 -206 72 -388 124 -555 48 -154 108 -319 122 -337 7 -7 47 -84
89 -171 95 -190 185 -343 325 -547 119 -175 77 -81 489 -1098 l267 -658 -22
-45 c-37 -78 -12 -161 58 -191 94 -39 194 53 169 154 -12 44 -68 93 -109 93
-19 0 -39 6 -44 13 -13 16 -574 1399 -570 1404 2 2 55 -57 118 -129 227 -265
591 -612 890 -851 70 -56 128 -109 128 -118 2 -39 -259 -457 -405 -651 -365
-481 -751 -752 -1157 -812 -170 -26 -308 -17 -484 29 -629 166 -1218 824
-1596 1785 -207 526 -341 1090 -404 1703 -22 217 -25 942 -5 1162 85 918 312
1776 732 2770 278 657 661 1384 1024 1945 290 448 668 967 885 1213 231 262
230 261 206 306 -23 45 -78 55 -142 24 -85 -40 -273 -253 -549 -623 -770
-1029 -1354 -2090 -1799 -3270 -489 -1297 -665 -2509 -534 -3675 122 -1085
521 -2131 1063 -2789 97 -118 281 -302 381 -381 431 -343 874 -472 1316 -384
544 108 1036 530 1492 1280 52 85 104 174 116 197 12 23 27 42 34 42 7 0 66
-39 132 -86 144 -103 265 -177 335 -204 28 -11 100 -45 160 -75 86 -44 137
-62 241 -86 73 -17 140 -34 149 -39 16 -8 132 -33 338 -71 l122 -23 123 23
c182 34 309 61 334 71 12 5 81 23 152 39 71 16 147 38 168 49 132 67 194 96
236 113 67 26 190 102 332 203 66 47 125 86 132 86 7 0 22 -19 34 -42 76 -149
300 -491 432 -658 471 -600 1020 -895 1562 -840 614 62 1182 494 1628 1240
169 283 353 695 465 1040 465 1433 428 2951 -113 4575 -326 982 -852 2062
-1432 2943 -259 395 -568 819 -789 1083 -178 213 -257 279 -332 279 -44 0 -61
-9 -77 -41 -24 -45 -25 -44 206 -306 217 -246 595 -765 885 -1213 363 -561
746 -1288 1024 -1945 420 -994 647 -1852 732 -2770 20 -220 17 -945 -5 -1162
-63 -613 -197 -1177 -404 -1703 -378 -961 -967 -1619 -1596 -1785 -176 -46
-314 -55 -484 -29 -406 60 -792 331 -1157 812 -146 194 -407 612 -405 651 0 9
58 62 128 118 299 239 663 586 890 851 63 72 116 131 118 129 4 -5 -557 -1388
-570 -1404 -5 -7 -25 -13 -44 -13 -41 0 -97 -49 -109 -93 -17 -69 33 -150 100
-162 105 -20 177 94 127 199 l-22 45 267 658 c412 1017 370 923 489 1098 140
204 230 357 325 547 42 87 82 164 88 171 17 20 96 242 136 379 49 169 80 313
111 513 14 94 30 184 35 200 29 89 267 668 275 670 6 2 22 6 37 9 41 9 86 53
99 96 18 59 4 105 -46 153 -43 42 -43 42 -130 342 -48 165 -158 544 -246 842
-87 298 -159 544 -159 547 0 3 13 12 30 21 85 44 80 196 -9 248 -17 10 -31 22
-31 26 0 5 9 53 21 107 11 55 23 157 27 228 l7 129 389 -934 c214 -514 443
-1062 509 -1218 l120 -283 -33 -26 c-41 -32 -60 -77 -60 -143 0 -46 4 -55 39
-90 l38 -39 -47 -102 c-26 -57 -280 -602 -565 -1213 -866 -1858 -1241 -2667
-1397 -3020 -107 -240 -90 -217 -135 -194 -45 23 -52 23 -103 3 -101 -40 -109
-182 -14 -245 58 -38 146 -13 179 50 17 35 20 100 5 133 -9 20 9 63 133 318
190 386 791 1666 1823 3879 99 213 186 385 194 388 40 12 78 37 93 63 42 70 4
190 -69 224 -40 19 -43 24 -94 150 -29 72 -109 266 -177 431 -192 461 -497
1197 -683 1645 -93 223 -181 448 -195 500 -90 322 -176 576 -246 729 -22 46
-83 166 -136 264 l-96 180 11 44 c23 86 11 143 -40 189 -12 12 -34 25 -48 29
-14 4 -31 12 -37 17 -15 12 -113 307 -147 443 -48 195 -70 320 -70 411 l-1 91
49 72 c36 52 50 82 50 107 0 26 4 34 17 34 10 0 25 10 33 22 20 28 78 48 144
48 53 0 63 8 38 29 -21 18 -327 116 -466 149 -488 118 -802 135 -1537 81 -170
-13 -336 -3 -505 32 -115 23 -131 23 -167 4 -31 -15 -47 -48 -55 -110 -2 -22
-11 -71 -20 -108 -12 -58 -16 -294 -22 -1560 l-7 -1492 49 -45 c124 -113 154
-136 232 -172 163 -76 593 -206 797 -242 50 -9 173 -32 275 -51 502 -95 820
-142 1046 -156 277 -17 400 -7 672 58 17 4 22 1 22 -15 0 -30 55 -89 96 -104
18 -6 36 -19 38 -27 3 -9 42 -146 86 -306 104 -371 381 -1345 386 -1360 3 -7
-12 -17 -35 -24 -97 -29 -122 -156 -46 -239 l33 -38 -94 -229 c-52 -125 -96
-230 -98 -232 -2 -2 -1 142 2 319 9 615 -51 1120 -207 1722 -68 262 -77 289
-105 315 -43 41 -140 22 -153 -29 -7 -25 -24 -28 -268 -40 -151 -8 -287 -8
-485 0 -381 15 -477 28 -835 115 -259 64 -383 103 -715 227 -483 181 -600 236
-719 336 -36 31 -94 80 -128 108 l-61 52 -72 0 -72 0 -64 -54 c-35 -30 -93
-78 -128 -108 -116 -98 -235 -154 -716 -334 -332 -124 -456 -163 -715 -227
-358 -87 -454 -100 -835 -115 -198 -8 -334 -8 -485 0 -244 12 -261 15 -268 40
-13 51 -110 70 -153 29 -28 -26 -37 -53 -105 -315 -156 -602 -216 -1107 -207
-1722 3 -177 4 -321 2 -319 -2 2 -46 107 -98 232 l-94 229 33 38 c76 83 51
210 -46 239 -23 7 -38 17 -35 24 5 15 282 989 386 1360 44 160 83 297 86 306
2 8 20 21 38 27 41 15 96 74 96 104 0 16 5 19 23 15 271 -65 394 -75 671 -58
226 14 544 61 1046 156 102 19 226 42 275 51 205 36 635 167 797 243 60 28
109 62 178 123 l95 84 -3 1495 c-3 1287 -5 1504 -18 1564 -8 39 -18 88 -20
110 -8 62 -24 95 -55 110 -35 18 -71 17 -178 -6z m82 -221 c-4 -18 -6 -718 -4
-1555 l4 -1521 -42 -21 c-163 -84 -660 -231 -927 -276 -82 -13 -189 -33 -239
-44 -49 -11 -115 -22 -145 -26 -30 -3 -104 -15 -165 -26 -409 -71 -492 -81
-769 -86 -300 -6 -378 2 -553 59 -84 27 -92 32 -88 51 10 43 25 243 25 332 1
169 39 348 140 660 77 235 128 356 236 556 219 409 330 695 419 1079 88 379
84 494 -22 648 -22 32 -33 56 -27 61 13 13 313 79 468 102 200 31 488 35 866
13 362 -21 528 -20 690 5 63 10 121 19 128 20 10 1 12 -7 5 -31z m1127 7 c163
-22 310 -22 670 -1 378 22 666 18 866 -13 155 -23 455 -89 468 -102 6 -5 -5
-29 -27 -61 -106 -154 -110 -269 -22 -648 89 -384 200 -670 419 -1079 108
-200 159 -321 236 -556 101 -312 139 -491 140 -660 0 -89 15 -289 25 -332 4
-19 -4 -24 -88 -51 -175 -57 -253 -65 -553 -59 -277 5 -360 15 -769 86 -60 11
-135 23 -165 26 -30 4 -95 15 -145 26 -49 11 -157 31 -239 44 -267 45 -764
192 -927 276 l-42 21 4 1521 c2 837 0 1537 -5 1556 -8 32 -7 33 15 28 13 -3
76 -13 139 -22z m-621 -3212 c15 -28 183 -191 237 -229 97 -70 254 -141 644
-290 298 -113 477 -172 695 -227 401 -102 541 -122 925 -138 214 -9 339 -8
509 0 124 7 234 14 243 17 11 3 19 -3 24 -18 3 -12 12 -28 19 -35 21 -21 107
-393 154 -663 59 -346 83 -640 82 -1035 0 -360 -8 -438 -86 -875 -115 -646
-356 -1158 -816 -1730 -334 -416 -761 -819 -1276 -1203 -176 -131 -177 -131
-458 -265 -189 -90 -268 -121 -443 -176 -234 -72 -392 -105 -492 -101 -105 4
-229 32 -454 102 -173 54 -252 85 -441 175 -281 134 -282 134 -458 265 -713
532 -1262 1104 -1625 1693 -223 362 -380 765 -452 1160 -11 63 -29 162 -40
220 -43 233 -53 325 -60 545 -16 516 25 979 131 1485 39 189 91 391 104 403 7
7 16 23 19 35 5 15 13 21 24 18 9 -3 119 -10 243 -17 170 -8 295 -9 509 0 384
16 524 36 925 138 218 55 397 114 695 227 390 149 547 220 644 290 54 38 222
201 237 229 5 9 14 17 19 17 5 0 14 -8 19 -17z"/>
<path d="M10055 9604 c-479 -95 -828 -422 -896 -839 -16 -101 -6 -278 21 -375
50 -180 176 -369 325 -489 66 -53 81 -71 86 -100 4 -20 12 -65 19 -101 13 -74
7 -222 -16 -339 -19 -101 -56 -175 -156 -311 -46 -63 -112 -156 -146 -206
-117 -175 -285 -365 -353 -400 -52 -26 -69 -48 -69 -89 0 -38 16 -62 52 -81
28 -15 153 -16 1318 -16 1165 0 1290 1 1318 16 36 19 52 43 52 81 0 41 -17 63
-69 89 -68 35 -236 225 -353 400 -34 50 -100 143 -146 206 -100 136 -137 210
-156 311 -23 117 -29 265 -16 339 7 36 15 81 19 101 5 29 20 47 86 100 149
120 275 309 325 489 27 97 37 274 21 375 -68 420 -421 748 -904 840 -96 18
-268 18 -362 -1z m0 -214 c7 -12 -22 -12 -50 0 -17 7 -15 9 12 9 17 1 35 -3
38 -9z m420 0 c-28 -12 -57 -12 -50 0 3 6 21 10 38 9 27 0 29 -2 12 -9z m-349
-36 c-20 -29 -20 -32 1 -36 15 -3 15 -4 -1 -20 -10 -10 -22 -18 -27 -18 -15 0
-24 33 -11 38 7 2 12 10 12 18 0 21 23 54 33 47 4 -2 1 -16 -7 -29z m254 -16
c0 -9 5 -18 12 -20 13 -5 4 -38 -11 -38 -5 0 -17 8 -27 18 -16 16 -16 17 -1
20 20 4 21 11 2 36 -8 10 -12 23 -9 28 8 12 33 -22 34 -44z m-447 15 c-7 -2
-13 -10 -13 -16 0 -6 -8 -19 -17 -29 -10 -11 -16 -32 -15 -51 2 -23 -1 -28 -7
-17 -5 8 -8 17 -5 21 2 4 -7 9 -21 11 -29 6 -50 -14 -41 -38 4 -11 -1 -24 -13
-35 -13 -12 -21 -14 -23 -7 -7 19 -26 0 -33 -31 -5 -23 -13 -30 -40 -35 -18
-4 -44 -15 -57 -26 -16 -12 -34 -17 -49 -14 -22 5 -23 4 -6 -9 9 -8 17 -20 18
-28 0 -8 5 -4 11 9 17 33 39 29 32 -7 -5 -23 -2 -32 15 -43 24 -15 27 -28 7
-28 -8 0 -16 7 -20 15 -9 26 -76 16 -76 -11 0 -8 4 -14 10 -14 5 0 7 -6 5 -12
-3 -7 11 -30 30 -51 19 -21 35 -42 35 -48 0 -5 8 -9 18 -9 12 0 14 2 4 8 -18
12 -5 39 21 46 25 6 37 -2 18 -13 -11 -7 -10 -14 4 -38 15 -26 20 -29 40 -19
26 12 24 28 -3 20 -10 -4 -13 -3 -6 3 5 4 18 19 27 33 l17 24 0 -26 c0 -15 5
-30 10 -33 19 -12 10 -24 -25 -31 -19 -3 -35 -11 -35 -18 0 -6 -4 -5 -9 3 -5
7 -14 11 -20 7 -12 -8 -51 10 -68 33 -12 14 -14 14 -28 -4 -9 -11 -13 -25 -11
-32 3 -7 -1 -13 -9 -13 -9 0 -15 10 -15 25 0 14 5 25 10 25 6 0 10 4 10 9 0
13 -48 10 -60 -5 -9 -9 -6 -15 10 -24 20 -11 20 -13 6 -29 -9 -10 -16 -26 -16
-37 0 -16 -2 -16 -10 -4 -5 8 -12 12 -15 8 -11 -10 -16 -58 -6 -58 21 0 41 13
41 26 0 26 20 14 37 -22 14 -29 21 -34 40 -29 18 4 23 1 23 -15 0 -21 -51 -54
-66 -42 -5 4 0 -3 10 -15 15 -18 16 -26 7 -37 -10 -11 -8 -17 8 -28 22 -16 18
-30 -5 -21 -8 3 -14 1 -14 -4 0 -16 22 -32 36 -26 10 4 14 -4 14 -30 0 -20 4
-38 9 -41 10 -7 3 -45 -12 -64 -8 -10 -5 -18 11 -31 l23 -17 -28 -26 c-15 -15
-40 -31 -56 -37 -28 -11 -50 -50 -42 -73 6 -15 55 -21 55 -7 0 4 7 6 15 3 22
-9 18 -31 -6 -37 -20 -5 -20 -7 -4 -31 10 -14 25 -26 35 -26 22 0 75 -50 96
-91 8 -16 19 -27 24 -24 16 10 11 27 -14 54 -22 23 -23 28 -10 45 12 18 16 18
40 5 14 -7 30 -24 35 -36 11 -28 29 -30 36 -3 4 15 14 20 40 20 l35 0 -7 -47
c-4 -27 -8 -50 -10 -52 -2 -2 -15 8 -28 23 -25 27 -37 25 -37 -5 0 -12 -5 -16
-15 -13 -10 4 -15 0 -15 -11 0 -10 -7 -23 -16 -29 -24 -18 -7 -46 30 -48 51
-2 90 3 104 14 9 8 12 6 12 -6 0 -9 -7 -16 -15 -16 -8 0 -15 -7 -15 -15 0 -8
5 -15 10 -15 6 0 10 -8 9 -17 0 -11 -3 -13 -6 -5 -2 6 -13 12 -24 12 -20 0
-25 -10 -10 -25 15 -16 17 -58 4 -62 -7 -3 -13 2 -13 11 0 27 -22 65 -35 60
-7 -3 -11 -17 -9 -31 3 -32 -12 -75 -18 -53 -3 8 -10 30 -16 48 -7 22 -8 42
-1 58 12 34 12 36 -9 30 -12 -4 -35 12 -76 52 -33 32 -57 61 -55 65 2 3 -10
21 -28 39 -17 18 -35 45 -38 61 -4 15 -12 27 -19 27 -11 0 -19 13 -74 109 -66
115 -103 365 -84 570 15 164 39 208 207 376 134 133 235 206 285 204 14 0 19
-3 13 -6z m717 -30 c40 -24 111 -86 194 -168 103 -103 138 -145 166 -200 l35
-69 3 -202 c3 -189 2 -209 -23 -310 -23 -97 -41 -140 -101 -241 -10 -18 -24
-33 -30 -33 -7 0 -15 -12 -19 -27 -3 -16 -19 -41 -35 -58 -16 -16 -29 -34 -28
-39 1 -5 -25 -36 -58 -68 -41 -40 -64 -56 -76 -52 -21 6 -21 4 -9 -30 7 -16 6
-36 -1 -58 -6 -18 -13 -40 -16 -48 -6 -22 -21 21 -18 53 2 14 -2 28 -9 31 -13
5 -35 -33 -35 -60 0 -9 -6 -14 -12 -11 -14 4 -12 46 3 62 15 15 10 25 -10 25
-11 0 -22 -6 -24 -12 -3 -8 -6 -6 -6 5 -1 9 4 17 9 17 6 0 10 7 10 15 0 8 -7
15 -15 15 -8 0 -15 7 -15 16 0 12 3 14 13 6 13 -11 52 -16 103 -14 37 2 54 30
30 48 -9 6 -16 19 -16 29 0 11 -5 15 -15 11 -10 -3 -15 1 -15 13 0 30 -12 32
-37 5 -13 -15 -26 -25 -28 -23 -2 2 -6 25 -10 52 l-7 47 35 0 c27 0 37 -5 42
-20 8 -27 23 -25 34 3 5 12 21 29 35 36 24 13 28 13 40 -5 13 -17 12 -22 -10
-45 -25 -27 -30 -44 -14 -54 5 -3 16 8 24 24 21 41 74 91 96 91 10 0 25 12 35
26 16 24 16 26 -4 31 -24 6 -28 28 -6 37 8 3 15 1 15 -3 0 -14 49 -8 55 7 8
23 -14 62 -42 73 -16 6 -41 22 -56 37 l-28 26 23 17 c16 13 19 21 11 31 -15
19 -22 57 -12 64 5 3 9 21 9 41 0 26 4 34 14 30 14 -6 36 10 36 26 0 5 -6 7
-14 4 -23 -9 -27 5 -5 21 16 11 18 17 8 28 -9 11 -8 19 7 37 10 12 15 19 10
15 -15 -12 -66 21 -66 42 0 16 5 19 23 15 19 -5 26 0 40 29 17 36 37 48 37 22
0 -13 20 -26 41 -26 10 0 5 48 -6 58 -3 4 -10 0 -15 -8 -8 -12 -10 -12 -10 4
0 11 -7 27 -16 37 -14 16 -14 18 6 29 16 9 19 15 10 24 -12 15 -60 18 -60 5 0
-5 5 -9 10 -9 6 0 10 -11 10 -25 0 -15 -6 -25 -15 -25 -8 0 -12 6 -9 13 2 7
-2 21 -11 32 -14 18 -16 18 -27 4 -18 -23 -57 -41 -69 -33 -6 4 -15 0 -20 -7
-5 -8 -9 -9 -9 -3 0 7 -16 15 -35 18 -35 7 -44 19 -25 31 6 3 10 18 10 33 l0
26 17 -24 c9 -14 22 -29 27 -33 7 -6 4 -7 -6 -3 -27 8 -29 -8 -3 -20 20 -10
25 -7 40 19 14 24 15 31 4 38 -19 11 -7 19 18 13 26 -7 39 -34 21 -46 -10 -6
-8 -8 5 -8 9 0 17 4 17 9 0 6 16 27 35 48 19 21 33 44 30 51 -2 6 0 12 5 12 6
0 10 6 10 14 0 27 -67 37 -76 11 -4 -8 -12 -15 -20 -15 -20 0 -17 13 7 28 17
11 20 20 15 43 -7 36 15 40 32 7 6 -13 11 -17 11 -9 1 8 9 20 19 28 16 13 15
14 -7 9 -15 -3 -33 2 -49 14 -13 11 -39 22 -57 26 -27 5 -35 12 -40 35 -7 31
-26 50 -33 31 -2 -7 -10 -5 -23 7 -12 11 -17 24 -13 35 9 24 -12 44 -41 38
-14 -2 -23 -7 -21 -11 3 -4 0 -13 -5 -21 -6 -11 -9 -6 -7 17 1 19 -5 40 -15
51 -9 10 -17 23 -17 29 0 6 -6 14 -12 16 -7 3 -2 6 12 6 14 1 54 -16 90 -36z
m-470 -3 c0 -5 -2 -10 -4 -10 -3 0 -8 5 -11 10 -3 6 -1 10 4 10 6 0 11 -4 11
-10z m140 6 c0 -3 -4 -8 -10 -11 -5 -3 -10 -1 -10 4 0 6 5 11 10 11 6 0 10 -2
10 -4z m-316 -61 c-4 -8 -10 -12 -15 -9 -11 6 -2 24 11 24 5 0 7 -7 4 -15z
m491 6 c3 -5 1 -12 -4 -15 -5 -3 -11 1 -15 9 -6 16 9 21 19 6z m-245 -21 c0
-5 6 -10 13 -10 17 0 60 -40 52 -49 -4 -3 -15 4 -25 17 -23 27 -40 28 -40 2 0
-11 -4 -20 -10 -20 -5 0 -10 9 -10 20 0 26 -17 25 -40 -2 -10 -13 -21 -20 -25
-17 -8 9 35 49 52 49 7 0 13 5 13 10 0 6 5 10 10 10 6 0 10 -4 10 -10z m-290
-20 c-13 -9 -13 -11 0 -20 13 -8 12 -10 -2 -10 -10 0 -18 2 -18 4 0 2 -3 11
-6 20 -5 12 0 16 17 16 19 0 21 -2 9 -10z m590 6 c0 -17 -15 -36 -29 -36 -14
0 -14 2 -1 10 13 9 13 11 0 20 -12 8 -11 10 8 10 12 0 22 -2 22 -4z m-611
-113 c-33 -42 -37 -44 -49 -24 -7 13 -7 22 0 26 5 3 10 1 10 -4 0 -6 5 -11 10
-11 6 0 10 7 10 15 0 8 7 15 16 15 14 0 15 -2 3 -17z m621 2 c0 -8 5 -15 10
-15 6 0 10 5 10 11 0 5 5 7 10 4 7 -4 7 -13 0 -26 -12 -20 -16 -18 -49 24 -12
15 -11 17 3 17 9 0 16 -7 16 -15z m-307 -12 c-7 -2 -19 -2 -25 0 -7 3 -2 5 12
5 14 0 19 -2 13 -5z m-3 -23 c0 -5 -4 -10 -10 -10 -5 0 -10 5 -10 10 0 6 5 10
10 10 6 0 10 -4 10 -10z m-177 -36 c-5 -18 -26 -9 -35 15 -8 23 -8 23 14 9 13
-9 22 -19 21 -24z m370 16 c-7 -26 -22 -35 -35 -22 -6 6 -2 15 13 26 29 20 28
20 22 -4z m-548 -9 c3 -5 1 -12 -5 -16 -5 -3 -10 1 -10 9 0 18 6 21 15 7z
m705 -7 c0 -8 -5 -12 -10 -9 -6 4 -8 11 -5 16 9 14 15 11 15 -7z m-665 -4 c3
-5 1 -10 -4 -10 -6 0 -11 5 -11 10 0 6 2 10 4 10 3 0 8 -4 11 -10z m625 0 c0
-5 -5 -10 -11 -10 -5 0 -7 5 -4 10 3 6 8 10 11 10 2 0 4 -4 4 -10z m-919 -89
c7 -18 6 -22 -9 -19 -9 2 -19 14 -20 27 -5 30 18 24 29 -8z m349 19 c0 -5 -5
-10 -11 -10 -5 0 -7 5 -4 10 3 6 8 10 11 10 2 0 4 -4 4 -10z m515 0 c3 -5 1
-10 -4 -10 -6 0 -11 5 -11 10 0 6 2 10 4 10 3 0 8 -4 11 -10z m365 -10 c0 -11
-7 -23 -15 -27 -21 -8 -24 -2 -14 25 10 28 29 29 29 2z m-883 -146 c-3 -3 -12
-4 -19 -1 -8 3 -5 6 6 6 11 1 17 -2 13 -5z m530 0 c-3 -3 -12 -4 -19 -1 -8 3
-5 6 6 6 11 1 17 -2 13 -5z m-327 -14 c0 -5 -5 -10 -11 -10 -5 0 -7 5 -4 10 3
6 8 10 11 10 2 0 4 -4 4 -10z m115 0 c3 -5 1 -10 -4 -10 -6 0 -11 5 -11 10 0
6 2 10 4 10 3 0 8 -4 11 -10z m-283 -32 c-8 -8 -9 -4 -5 13 4 13 8 18 11 10 2
-7 -1 -18 -6 -23z m441 12 c3 -11 1 -18 -4 -14 -5 3 -9 12 -9 20 0 20 7 17 13
-6z m-754 -141 c-16 -10 -23 -4 -14 10 3 6 11 8 17 5 6 -4 5 -9 -3 -15z m1081
1 c0 -5 -7 -7 -15 -4 -8 4 -12 10 -9 15 6 11 24 2 24 -11z m-524 -26 c-3 -9
-6 -20 -6 -25 0 -5 -9 -9 -20 -9 -11 0 -20 4 -20 9 0 5 -3 16 -6 25 -5 13 1
16 26 16 25 0 31 -3 26 -16z m-576 -8 c0 -3 -4 -8 -10 -11 -5 -3 -10 -1 -10 4
0 6 5 11 10 11 6 0 10 -2 10 -4z m100 -16 c7 -14 7 -20 0 -20 -5 0 -10 6 -10
13 0 8 -4 7 -10 -3 -8 -12 -10 -11 -10 8 0 27 16 29 30 2z m930 -2 c0 -19 -2
-20 -10 -8 -6 10 -10 11 -10 3 0 -7 -5 -13 -10 -13 -7 0 -7 6 0 20 14 27 30
25 30 -2z m90 12 c0 -5 -2 -10 -4 -10 -3 0 -8 5 -11 10 -3 6 -1 10 4 10 6 0
11 -4 11 -10z m-1091 -66 c-29 -31 -39 -30 -39 2 0 22 3 24 14 15 12 -10 17
-8 27 11 8 15 14 18 17 10 2 -7 -6 -24 -19 -38z m1069 18 c9 9 12 6 12 -15 0
-15 -3 -27 -7 -27 -14 0 -53 44 -53 59 0 12 5 10 18 -7 14 -18 20 -20 30 -10z
m-903 8 c3 -5 2 -10 -4 -10 -5 0 -13 5 -16 10 -3 6 -2 10 4 10 5 0 13 -4 16
-10z m730 0 c-3 -5 -11 -10 -16 -10 -6 0 -7 5 -4 10 3 6 11 10 16 10 6 0 7 -4
4 -10z m-848 -44 c-3 -8 -1 -17 6 -20 7 -2 0 -5 -15 -5 -32 -1 -35 6 -10 25
22 17 25 17 19 0z m488 4 c3 -5 -3 -10 -15 -10 -12 0 -18 5 -15 10 3 6 10 10
15 10 5 0 12 -4 15 -10z m495 -22 c0 -5 -12 -8 -27 -7 -16 0 -23 3 -16 5 7 3
9 12 6 21 -5 13 -3 13 16 2 11 -8 21 -17 21 -21z m-431 -30 c7 -15 10 -32 6
-38 -10 -16 -36 -12 -51 8 -12 15 -15 15 -24 2 -9 -13 -11 -13 -20 0 -9 13
-12 13 -24 -2 -15 -20 -41 -24 -51 -8 -4 6 -1 23 6 38 11 26 15 28 79 28 64 0
68 -2 79 -28z m-369 0 c0 -13 -23 -5 -28 10 -2 7 2 10 12 6 9 -3 16 -11 16
-16z m602 0 c-6 -6 -15 -8 -19 -4 -4 4 -1 11 7 16 19 12 27 3 12 -12z m-452
-8 c0 -5 -5 -10 -11 -10 -5 0 -7 5 -4 10 3 6 8 10 11 10 2 0 4 -4 4 -10z m295
0 c3 -5 1 -10 -4 -10 -6 0 -11 5 -11 10 0 6 2 10 4 10 3 0 8 -4 11 -10z m-638
-32 c-3 -8 -6 -5 -6 6 -1 11 2 17 5 13 3 -3 4 -12 1 -19z m970 0 c-3 -8 -6 -5
-6 6 -1 11 2 17 5 13 3 -3 4 -12 1 -19z m-454 -80 c-3 -45 -1 -48 21 -48 13 0
34 -9 47 -19 23 -19 23 -20 6 -55 -17 -36 -47 -49 -47 -21 0 8 -4 15 -10 15
-5 0 -10 7 -10 15 0 8 7 15 15 15 20 0 19 17 -3 29 -20 10 -91 9 -110 -3 -17
-10 -15 -26 3 -26 8 0 15 -7 15 -15 0 -8 -4 -15 -10 -15 -5 0 -10 -7 -10 -15
0 -28 -30 -15 -47 21 -17 35 -17 36 6 55 13 10 34 19 48 19 23 0 24 2 18 40
-8 50 -1 62 38 58 31 -3 32 -4 30 -50z m-429 -3 c-4 -8 -15 -15 -26 -15 -17 0
-18 3 -8 15 7 8 19 15 26 15 8 0 11 -6 8 -15z m826 0 c10 -12 9 -15 -8 -15
-11 0 -22 7 -26 15 -3 9 0 15 8 15 7 0 19 -7 26 -15z m-930 -60 c17 -9 27 -21
24 -28 -3 -8 2 -20 11 -27 8 -7 15 -21 15 -31 0 -11 6 -19 13 -19 19 0 37 21
37 45 1 19 1 19 14 3 7 -10 18 -18 24 -18 6 0 9 -7 6 -15 -4 -8 -12 -15 -19
-15 -19 0 -25 -24 -16 -58 12 -39 0 -56 -30 -46 -13 4 -27 7 -31 6 -5 -1 -8 7
-8 17 0 11 -6 21 -14 23 -13 3 -13 6 0 23 13 17 16 18 24 5 5 -8 10 -10 10 -4
0 6 -9 19 -20 29 -11 10 -17 22 -13 28 3 6 -4 3 -18 -6 -30 -21 -48 -21 -71 0
-15 13 -21 14 -27 5 -8 -13 -41 -6 -41 9 0 5 9 9 19 9 11 0 23 5 26 10 4 6 14
8 23 5 24 -7 49 33 27 41 -17 7 -20 24 -5 24 6 0 24 -7 40 -15z m1050 6 c0 -5
-7 -11 -15 -15 -22 -8 3 -48 27 -41 9 3 19 1 23 -5 3 -5 15 -10 26 -10 10 0
19 -4 19 -9 0 -15 -33 -22 -41 -9 -6 9 -12 8 -27 -5 -23 -21 -41 -21 -71 0
-14 9 -21 12 -18 6 4 -6 -2 -18 -13 -28 -11 -10 -20 -23 -20 -29 0 -6 5 -4 10
4 8 13 11 12 24 -5 13 -17 13 -20 0 -23 -8 -2 -14 -12 -14 -23 0 -10 -3 -18
-7 -17 -5 1 -19 -2 -32 -6 -30 -10 -42 7 -30 46 9 34 3 58 -16 58 -7 0 -15 7
-19 15 -3 8 0 15 6 15 6 0 17 8 24 18 13 16 13 16 14 -3 0 -24 18 -45 37 -45
7 0 13 8 13 19 0 10 7 24 15 31 9 7 14 19 11 26 -3 8 6 20 22 28 31 17 52 20
52 7z m-690 -61 c0 -5 -5 -10 -11 -10 -5 0 -7 5 -4 10 3 6 8 10 11 10 2 0 4
-4 4 -10z m295 0 c3 -5 1 -10 -4 -10 -6 0 -11 5 -11 10 0 6 2 10 4 10 3 0 8
-4 11 -10z m-462 -88 c15 -17 15 -20 1 -38 -15 -18 -15 -18 -11 9 3 18 0 27
-9 27 -8 0 -14 5 -14 10 0 16 15 12 33 -8z m105 6 c14 -14 16 -28 2 -28 -5 0
-14 9 -20 20 -12 22 -1 27 18 8z m107 2 c3 -5 1 -10 -4 -10 -6 0 -11 5 -11 10
0 6 2 10 4 10 3 0 8 -4 11 -10z m205 0 c0 -5 -5 -10 -11 -10 -5 0 -7 5 -4 10
3 6 8 10 11 10 2 0 4 -4 4 -10z m110 -10 c-11 -20 -30 -28 -30 -12 0 11 22 32
32 32 5 0 4 -9 -2 -20z m120 10 c0 -5 -6 -10 -14 -10 -9 0 -12 -9 -9 -27 4
-27 4 -27 -11 -9 -14 18 -14 21 1 38 18 20 33 24 33 8z m-892 -32 c16 -16 15
-38 -2 -38 -13 0 -26 20 -26 41 0 13 14 11 28 -3z m487 2 c3 -5 -3 -10 -14
-10 -12 0 -21 5 -21 10 0 6 6 10 14 10 8 0 18 -4 21 -10z m165 0 c0 -5 -9 -10
-21 -10 -11 0 -17 5 -14 10 3 6 13 10 21 10 8 0 14 -4 14 -10z m480 1 c0 -21
-13 -41 -26 -41 -17 0 -18 22 -2 38 14 14 28 16 28 3z m-800 -41 c0 -6 -7 -13
-16 -17 -8 -3 -13 -12 -10 -19 6 -16 -10 -19 -19 -3 -4 5 1 19 11 30 19 21 34
25 34 9z m474 -9 c10 -11 15 -25 11 -30 -9 -16 -25 -13 -19 3 3 7 -2 16 -10
19 -17 7 -22 27 -8 27 5 0 17 -9 26 -19z m-510 -117 c20 -8 21 -48 1 -64 -12
-10 -15 -10 -15 3 0 9 5 19 11 22 7 5 4 14 -7 26 -18 20 -16 23 10 13z m522
-13 c-11 -12 -14 -21 -7 -26 17 -10 13 -35 -4 -29 -18 7 -20 60 -2 67 25 11
30 6 13 -12z m-406 -40 c0 -6 -4 -13 -10 -16 -5 -3 -10 1 -10 9 0 9 5 16 10
16 6 0 10 -4 10 -9z m300 -7 c0 -8 -4 -12 -10 -9 -5 3 -10 10 -10 16 0 5 5 9
10 9 6 0 10 -7 10 -16z m-378 -29 c-2 -14 -6 -25 -8 -25 -2 0 -4 11 -4 25 0
14 4 25 9 25 4 0 6 -11 3 -25z m448 0 c0 -14 -2 -25 -4 -25 -2 0 -6 11 -8 25
-3 14 -1 25 3 25 5 0 9 -11 9 -25z m-381 -22 c0 -25 -1 -25 -8 -8 -5 11 -7 23
-4 28 8 14 13 7 12 -20z m314 -3 c-7 -28 -13 -25 -13 6 0 14 4 23 9 20 5 -3 7
-15 4 -26z m-413 -24 c0 -3 -4 -8 -10 -11 -5 -3 -10 -1 -10 4 0 6 5 11 10 11
6 0 10 -2 10 -4z m520 -6 c0 -5 -2 -10 -4 -10 -3 0 -8 5 -11 10 -3 6 -1 10 4
10 6 0 11 -4 11 -10z m-437 -20 c-3 -11 -9 -20 -15 -20 -5 0 -4 9 2 20 6 11
12 20 14 20 2 0 2 -9 -1 -20z m347 0 c6 -11 7 -20 2 -20 -6 0 -12 9 -15 20 -3
11 -3 20 -1 20 2 0 8 -9 14 -20z m-355 -40 c3 -5 -1 -10 -10 -10 -9 0 -13 5
-10 10 3 6 8 10 10 10 2 0 7 -4 10 -10z m370 0 c3 -5 -1 -10 -10 -10 -9 0 -13
5 -10 10 3 6 8 10 10 10 2 0 7 -4 10 -10z m-396 -40 c-8 -6 -8 -13 0 -28 6
-11 7 -23 2 -26 -12 -8 -21 4 -21 26 0 10 -4 18 -10 18 -14 0 -12 27 3 33 18
6 41 -14 26 -23z m441 4 c0 -8 -4 -14 -10 -14 -5 0 -10 -9 -10 -19 0 -21 -13
-35 -23 -24 -4 3 -1 15 5 26 8 16 8 22 -1 25 -9 3 -9 7 -1 17 14 16 40 9 40
-11z m-630 -59 c0 -13 7 -31 16 -40 17 -16 12 -51 -6 -40 -5 3 -10 -1 -10 -9
0 -9 -5 -16 -10 -16 -10 0 7 -39 22 -50 3 -3 -5 -19 -18 -35 l-24 -30 0 112
c0 61 3 118 6 127 8 22 24 10 24 -19z m810 -105 l0 -115 -24 30 c-13 16 -21
32 -18 35 15 11 32 50 22 50 -5 0 -10 7 -10 16 0 8 -5 12 -10 9 -18 -11 -23
24 -6 40 9 9 16 27 16 39 0 12 3 26 7 29 16 16 23 -25 23 -133z m-750 121 c0
-13 -29 -35 -37 -28 -7 8 15 37 28 37 5 0 9 -4 9 -9z m690 -6 c7 -9 10 -18 7
-22 -8 -7 -37 15 -37 28 0 14 16 11 30 -6z m-705 -245 c3 -5 -1 -10 -9 -10 -8
0 -18 5 -21 10 -3 6 1 10 9 10 8 0 18 -4 21 -10z m720 0 c-3 -5 -13 -10 -21
-10 -8 0 -12 5 -9 10 3 6 13 10 21 10 8 0 12 -4 9 -10z m-729 -39 c0 -15 -3
-17 -18 -7 -17 10 -17 11 0 18 9 3 17 7 17 7 1 1 1 -7 1 -18z m742 5 c-2 -1
-10 -7 -18 -13 -13 -10 -16 -8 -16 6 0 13 6 17 19 13 10 -2 16 -5 15 -6z
m-643 -26 c4 0 4 4 0 9 -10 17 12 21 25 6 17 -20 -1 -41 -41 -50 -24 -6 -29
-11 -23 -27 5 -16 2 -19 -13 -16 -23 4 -30 52 -12 85 12 21 14 22 35 8 13 -8
26 -15 29 -15z m510 9 c-9 -13 3 -11 29 6 21 14 23 13 35 -8 18 -33 11 -81
-12 -85 -15 -3 -18 0 -13 16 6 16 1 21 -23 27 -40 9 -58 30 -41 50 13 15 35
11 25 -6z m-659 -46 c-3 -23 -20 -42 -39 -43 -6 0 -3 31 8 67 7 23 34 2 31
-24z m847 -10 c7 -34 2 -39 -22 -24 -18 11 -22 53 -7 63 15 10 22 -1 29 -39z
m-683 -9 c0 -8 -4 -12 -10 -9 -5 3 -10 10 -10 16 0 5 5 9 10 9 6 0 10 -7 10
-16z m50 6 c0 -5 -4 -10 -10 -10 -5 0 -10 5 -10 10 0 6 5 10 10 10 6 0 10 -4
10 -10z m400 0 c0 -5 -4 -10 -10 -10 -5 0 -10 5 -10 10 0 6 5 10 10 10 6 0 10
-4 10 -10z m50 1 c0 -6 -4 -13 -10 -16 -5 -3 -10 1 -10 9 0 9 5 16 10 16 6 0
10 -4 10 -9z m-620 -31 c0 -5 -9 -10 -20 -10 -11 0 -20 5 -20 10 0 6 9 10 20
10 11 0 20 -4 20 -10z m760 0 c0 -5 -9 -10 -20 -10 -11 0 -20 5 -20 10 0 6 9
10 20 10 11 0 20 -4 20 -10z m-720 -20 c13 -25 33 -25 67 -3 25 17 26 17 15
-4 -6 -11 -8 -24 -4 -29 4 -5 -1 -2 -10 5 -15 12 -18 11 -18 -3 0 -18 -25 -22
-36 -5 -3 6 -15 9 -25 6 -23 -6 -32 7 -24 33 8 25 21 25 35 0z m675 0 c8 -26
-1 -39 -24 -33 -10 3 -22 0 -25 -6 -11 -17 -36 -13 -36 5 0 14 -3 15 -17 3
-10 -7 -15 -10 -11 -5 4 5 2 18 -4 29 -11 21 -10 21 15 4 34 -22 54 -22 67 3
14 25 27 25 35 0z m-329 -13 c10 -10 -23 -20 -42 -13 -8 3 -13 10 -10 14 6 10
42 9 52 -1z m-468 -78 c17 -26 10 -34 -17 -20 -12 7 -18 17 -15 26 8 20 17 19
32 -6z m916 6 c3 -9 -3 -19 -15 -26 -27 -14 -34 -6 -17 20 15 25 24 26 32 6z
m-709 -14 c3 -5 -8 -9 -25 -9 -21 1 -27 4 -18 9 17 11 35 11 43 0z m513 0 c9
-5 3 -8 -18 -9 -17 0 -28 4 -25 9 8 11 26 11 43 0z m-755 -53 c-8 -42 -9 -44
-22 -20 -13 24 -5 52 15 52 10 0 12 -9 7 -32z m981 16 c5 -14 -11 -61 -18 -52
-2 1 -6 18 -9 36 -5 23 -3 32 7 32 8 0 17 -7 20 -16z m-770 -19 c-4 -8 -1 -15
5 -15 6 0 11 -7 11 -15 0 -30 -27 -15 -28 15 0 17 3 30 8 30 5 0 7 -7 4 -15z
m544 -15 c-1 -30 -28 -45 -28 -15 0 8 5 15 11 15 6 0 9 7 5 15 -3 8 -1 15 4
15 5 0 8 -13 8 -30z m-593 1 c3 -5 1 -12 -5 -16 -5 -3 -10 1 -10 9 0 18 6 21
15 7z m645 -7 c0 -8 -5 -12 -10 -9 -6 4 -8 11 -5 16 9 14 15 11 15 -7z m-510
-5 c0 -8 6 -7 16 2 15 12 16 11 9 -11 -9 -30 -5 -26 -35 -35 -14 -4 -22 -4
-18 0 4 5 3 14 -3 21 -6 7 -8 18 -4 24 8 14 35 13 35 -1z m360 0 c0 14 27 15
35 1 4 -6 2 -17 -4 -24 -6 -7 -7 -16 -3 -21 4 -4 -4 -4 -18 0 -30 9 -26 5 -35
35 -7 22 -6 23 9 11 10 -9 16 -10 16 -2z m-570 -9 c0 -5 -5 -10 -11 -10 -5 0
-7 5 -4 10 3 6 8 10 11 10 2 0 4 -4 4 -10z m795 0 c3 -5 1 -10 -4 -10 -6 0
-11 5 -11 10 0 6 2 10 4 10 3 0 8 -4 11 -10z m-855 -22 c0 -15 -16 -16 -35 -2
-18 13 -18 14 8 12 15 -1 27 -6 27 -10z m935 -2 c-11 -8 -23 -12 -27 -10 -16
10 -7 20 19 22 26 2 26 1 8 -12z m-818 -33 c-9 -8 -48 8 -42 18 4 5 14 5 26
-2 12 -6 18 -13 16 -16z m273 17 c0 -5 -5 -10 -11 -10 -5 0 -7 5 -4 10 3 6 8
10 11 10 2 0 4 -4 4 -10z m135 0 c3 -5 1 -10 -4 -10 -6 0 -11 5 -11 10 0 6 2
10 4 10 3 0 8 -4 11 -10z m294 -11 c-8 -5 -21 -9 -29 -9 -12 1 -11 4 4 15 10
8 23 12 29 8 5 -3 3 -9 -4 -14z m-475 -3 c-10 -8 -21 -12 -24 -10 -5 6 21 24
34 24 6 0 1 -6 -10 -14z m226 4 c8 -5 12 -11 10 -14 -3 -2 -14 2 -24 10 -22
15 -10 19 14 4z m-669 -39 c-9 -2 -22 -8 -28 -13 -23 -19 -14 10 9 32 21 19
23 20 29 3 4 -12 1 -19 -10 -22z m1131 4 c12 -16 9 -30 -4 -17 -7 7 -20 12
-29 12 -12 0 -16 6 -12 20 5 17 8 18 22 8 9 -7 19 -17 23 -23z m-1122 -55
c-20 -13 -33 -13 -25 0 3 6 14 10 23 10 15 0 15 -2 2 -10z m1105 0 c8 -13 -5
-13 -25 0 -13 8 -13 10 2 10 9 0 20 -4 23 -10z m-1235 -94 c0 -3 -4 -8 -10
-11 -5 -3 -10 -1 -10 4 0 6 5 11 10 11 6 0 10 -2 10 -4z m1360 -6 c0 -5 -2
-10 -4 -10 -3 0 -8 5 -11 10 -3 6 -1 10 4 10 6 0 11 -4 11 -10z m-1393 -121
c-17 -10 -24 -49 -8 -49 5 0 15 7 22 17 13 14 14 13 19 -13 3 -17 14 -33 28
-39 23 -10 32 -30 10 -22 -7 2 -21 0 -30 -4 -10 -6 -19 -5 -23 1 -3 5 -15 10
-26 10 -10 0 -19 5 -19 11 0 7 -11 9 -30 6 -16 -4 -32 -2 -36 4 -3 6 -14 1
-25 -12 -11 -12 -17 -24 -15 -26 2 -2 25 -5 50 -6 45 -2 49 -4 74 -50 39 -68
37 -69 -191 -69 -32 0 -60 2 -63 5 -4 4 92 116 138 160 11 11 24 31 29 45 l11
27 25 -30 c16 -19 21 -22 14 -8 -9 18 -7 24 21 42 18 11 35 18 38 15 3 -3 -3
-10 -13 -15z m1440 -7 c19 -12 21 -18 12 -36 -7 -13 -2 -10 14 9 l25 30 11
-27 c5 -14 18 -34 29 -45 46 -44 142 -156 138 -160 -3 -3 -31 -5 -63 -5 -228
0 -230 1 -191 69 25 46 29 48 74 50 25 1 48 4 50 6 2 2 -4 14 -15 26 -11 13
-22 18 -25 12 -4 -6 -20 -8 -36 -4 -19 3 -30 1 -30 -6 0 -6 -9 -11 -19 -11
-11 0 -23 -5 -26 -10 -4 -6 -13 -7 -23 -1 -9 4 -23 6 -29 4 -23 -8 -14 12 9
22 14 6 25 22 28 39 5 26 6 27 19 13 7 -10 17 -17 22 -17 15 0 10 40 -6 46 -8
4 -15 10 -15 16 0 9 5 7 47 -20z m-1302 -32 c3 -5 1 -10 -4 -10 -6 0 -11 5
-11 10 0 6 2 10 4 10 3 0 8 -4 11 -10z m1145 0 c0 -5 -5 -10 -11 -10 -5 0 -7
5 -4 10 3 6 8 10 11 10 2 0 4 -4 4 -10z m-748 -72 c-7 -7 -12 -8 -12 -2 0 14
12 26 19 19 2 -3 -1 -11 -7 -17z m348 1 c0 -6 -4 -7 -10 -4 -5 3 -10 11 -10
16 0 6 5 7 10 4 6 -3 10 -11 10 -16z m-255 -19 c3 -5 1 -10 -4 -10 -6 0 -11 5
-11 10 0 6 2 10 4 10 3 0 8 -4 11 -10z m165 0 c0 -5 -5 -10 -11 -10 -5 0 -7 5
-4 10 3 6 8 10 11 10 2 0 4 -4 4 -10z m-490 -32 c0 -5 -4 -8 -10 -8 -5 0 -10
10 -10 23 0 18 2 19 10 7 5 -8 10 -18 10 -22z m816 -5 c-11 -11 -17 4 -9 23 7
18 8 18 11 1 2 -10 1 -21 -2 -24z m-496 -7 c0 -3 -4 -8 -10 -11 -5 -3 -10 -1
-10 4 0 6 5 11 10 11 6 0 10 -2 10 -4z m180 -6 c0 -5 -2 -10 -4 -10 -3 0 -8 5
-11 10 -3 6 -1 10 4 10 6 0 11 -4 11 -10z m-720 -21 c0 -5 -4 -9 -10 -9 -5 0
-10 7 -10 16 0 8 5 12 10 9 6 -3 10 -10 10 -16z m1256 -6 c-10 -10 -19 5 -10
18 6 11 8 11 12 0 2 -7 1 -15 -2 -18z"/>
<path d="M9776 9253 c-12 -12 -6 -33 9 -33 8 0 15 6 15 14 0 17 -14 28 -24 19z"/>
<path d="M9505 8919 c-10 -15 3 -25 16 -12 7 7 7 13 1 17 -6 3 -14 1 -17 -5z"/>
<path d="M9480 8859 c0 -5 5 -7 10 -4 6 3 10 8 10 11 0 2 -4 4 -10 4 -5 0 -10
-5 -10 -11z"/>
<path d="M9472 8795 c-3 -40 22 -66 35 -38 5 10 8 24 7 31 -1 6 -2 16 -3 21 0
5 -9 11 -19 13 -14 4 -19 -1 -20 -27z"/>
<path d="M9580 8670 c0 -5 -7 -7 -15 -4 -9 4 -15 0 -15 -10 0 -12 5 -14 24 -6
13 5 27 6 31 2 3 -3 3 1 -1 11 -7 18 -24 23 -24 7z"/>
<path d="M9507 8644 c-3 -3 -3 -12 0 -20 4 -11 9 -12 19 -3 8 6 11 15 8 20 -6
10 -18 12 -27 3z"/>
<path d="M9470 8589 c0 -5 5 -7 10 -4 6 3 10 8 10 11 0 2 -4 4 -10 4 -5 0 -10
-5 -10 -11z"/>
<path d="M9537 8533 c-4 -3 -7 -17 -7 -30 0 -24 -14 -31 -25 -13 -9 15 -25 2
-25 -21 0 -24 45 -48 61 -32 6 6 11 24 11 42 1 30 2 30 15 11 17 -23 35 -18
26 8 -13 34 -41 51 -56 35z"/>
<path d="M9530 8363 c0 -11 12 -25 32 -41 14 -11 20 -11 31 -1 10 10 11 16 3
25 -14 13 -66 27 -66 17z"/>
<path d="M9780 8030 c0 -5 5 -10 10 -10 6 0 10 5 10 10 0 6 -4 10 -10 10 -5 0
-10 -4 -10 -10z"/>
<path d="M9885 8020 c-3 -5 -2 -10 4 -10 5 0 13 5 16 10 3 6 2 10 -4 10 -5 0
-13 -4 -16 -10z"/>
<path d="M9702 7981 c2 -7 7 -12 11 -12 12 1 9 15 -3 20 -7 2 -11 -2 -8 -8z"/>
<path d="M9836 7842 c-2 -4 -1 -14 4 -22 8 -13 12 -12 27 4 10 10 12 16 6 12
-7 -4 -13 -2 -13 3 0 13 -17 15 -24 3z"/>
<path d="M10686 9253 c-12 -12 -6 -33 9 -33 8 0 15 6 15 14 0 17 -14 28 -24
19z"/>
<path d="M10956 8922 c-3 -6 -1 -14 5 -17 15 -10 25 3 12 16 -7 7 -13 7 -17 1z"/>
<path d="M10985 8860 c3 -5 8 -10 11 -10 2 0 4 5 4 10 0 6 -5 10 -11 10 -5 0
-7 -4 -4 -10z"/>
<path d="M10988 8823 c-10 -2 -19 -9 -19 -14 -1 -5 -2 -15 -3 -21 -1 -7 2 -21
7 -31 13 -29 38 -2 35 39 -1 19 -2 33 -3 33 0 -1 -8 -3 -17 -6z"/>
<path d="M10876 8663 c-4 -10 -4 -14 -1 -11 4 4 18 3 31 -2 19 -8 24 -6 24 6
0 10 -6 14 -15 10 -8 -3 -15 -1 -15 4 0 16 -17 11 -24 -7z"/>
<path d="M10946 8641 c-3 -5 0 -14 8 -20 10 -9 15 -8 19 3 9 22 -15 37 -27 17z"/>
<path d="M10995 8590 c3 -5 8 -10 11 -10 2 0 4 5 4 10 0 6 -5 10 -11 10 -5 0
-7 -4 -4 -10z"/>
<path d="M10904 8527 c-16 -19 -24 -46 -14 -52 5 -3 15 4 23 15 13 19 14 19
15 -11 0 -18 5 -36 11 -42 16 -16 61 8 61 32 0 23 -16 36 -25 21 -11 -18 -24
-10 -27 17 -3 30 -26 40 -44 20z"/>
<path d="M10916 8363 c-33 -8 -45 -27 -29 -42 11 -10 17 -10 31 1 20 15 32 30
32 41 0 7 -4 8 -34 0z"/>
<path d="M10680 8030 c0 -5 5 -10 10 -10 6 0 10 5 10 10 0 6 -4 10 -10 10 -5
0 -10 -4 -10 -10z"/>
<path d="M10575 8020 c3 -5 11 -10 16 -10 6 0 7 5 4 10 -3 6 -11 10 -16 10 -6
0 -7 -4 -4 -10z"/>
<path d="M10755 7981 c-6 -11 9 -23 19 -14 9 9 7 23 -3 23 -6 0 -12 -4 -16 -9z"/>
<path d="M10620 7839 c0 -5 -6 -7 -12 -3 -7 4 -5 -2 5 -12 15 -16 19 -17 27
-4 5 8 6 18 4 22 -7 12 -24 10 -24 -3z"/>
<path d="M9810 8135 c0 -8 4 -15 10 -15 5 0 7 7 4 15 -4 8 -8 15 -10 15 -2 0
-4 -7 -4 -15z"/>
<path d="M10656 8135 c-3 -8 -1 -15 4 -15 6 0 10 7 10 15 0 8 -2 15 -4 15 -2
0 -6 -7 -10 -15z"/>
<path d="M9415 6569 c-4 -6 -5 -13 -2 -16 7 -7 27 6 27 18 0 12 -17 12 -25 -2z"/>
<path d="M9475 6520 c-3 -5 3 -10 14 -10 12 0 21 5 21 10 0 6 -6 10 -14 10 -8
0 -18 -4 -21 -10z"/>
<path d="M11042 6569 c2 -7 10 -15 17 -17 8 -3 12 1 9 9 -2 7 -10 15 -17 17
-8 3 -12 -1 -9 -9z"/>
<path d="M10970 6520 c0 -5 9 -10 21 -10 11 0 17 5 14 10 -3 6 -13 10 -21 10
-8 0 -14 -4 -14 -10z"/>
<path d="M7097 13800 c-54 -47 -66 -133 -28 -195 11 -18 -19 -80 -260 -535
-408 -773 -1322 -2509 -1614 -3067 l-257 -493 -33 0 c-76 0 -154 -99 -140
-180 8 -50 60 -107 103 -116 18 -4 36 -11 41 -18 5 -6 29 -67 54 -136 97 -268
563 -1506 1546 -4104 237 -626 431 -1142 431 -1148 0 -5 -11 -24 -25 -42 -46
-61 -28 -156 38 -196 72 -44 161 -12 187 66 23 69 -22 146 -96 166 -43 12 -45
14 -73 88 -16 41 -287 755 -601 1585 -786 2077 -1146 3023 -1294 3405 -113
292 -124 326 -109 335 10 6 32 24 50 42 29 27 33 37 33 82 0 57 -27 121 -61
144 -20 15 -17 22 164 358 231 432 928 1743 1519 2859 l453 855 40 6 c22 3 50
11 63 18 77 42 83 184 10 235 -38 27 -102 21 -141 -14z"/>
<path d="M13242 13814 c-73 -51 -67 -193 10 -235 13 -7 41 -15 63 -18 l40 -6
453 -855 c591 -1116 1288 -2427 1519 -2859 181 -336 184 -343 164 -358 -34
-23 -61 -87 -61 -144 0 -45 4 -55 33 -82 18 -18 40 -36 50 -42 15 -9 4 -43
-109 -335 -148 -382 -508 -1328 -1294 -3405 -314 -830 -585 -1544 -601 -1585
-28 -74 -30 -76 -73 -88 -74 -20 -119 -97 -96 -166 26 -78 115 -110 187 -66
66 40 84 135 38 196 -14 18 -25 37 -25 42 0 6 194 522 431 1148 983 2598 1449
3836 1546 4104 25 69 49 130 54 136 5 7 23 14 41 18 43 9 95 66 103 116 14 81
-64 180 -140 180 l-33 0 -257 493 c-292 558 -1206 2294 -1614 3067 -241 455
-271 517 -260 535 58 94 -3 225 -104 225 -23 0 -53 -7 -65 -16z"/>
<path d="M4763 9000 c-46 -28 -67 -65 -67 -120 0 -61 33 -113 92 -141 l42 -21
0 -66 c0 -123 -20 -404 -45 -657 -40 -395 -45 -503 -52 -965 -7 -504 -9 -490
94 -718 116 -258 435 -854 611 -1142 243 -397 437 -739 594 -1043 113 -219
126 -251 117 -274 -30 -79 52 -174 135 -159 72 14 117 107 82 173 -28 55 -63
75 -126 71 l-54 -3 -116 225 c-63 124 -145 277 -182 340 -36 63 -105 185 -153
270 -48 85 -127 218 -175 295 -251 403 -598 1049 -730 1360 -61 143 -64 178
-57 625 7 404 17 571 62 1044 16 175 25 334 25 452 0 172 1 183 19 189 11 3
34 22 50 41 27 30 31 42 31 94 0 49 -4 64 -26 90 -51 61 -114 75 -171 40z"/>
<path d="M15594 9001 c-55 -34 -74 -67 -74 -132 0 -51 4 -63 31 -93 16 -19 39
-38 50 -41 18 -6 19 -17 19 -189 0 -118 9 -277 25 -452 45 -473 55 -640 62
-1044 7 -447 4 -482 -57 -625 -132 -311 -479 -957 -730 -1360 -48 -77 -127
-210 -175 -295 -48 -85 -117 -207 -153 -270 -37 -63 -119 -216 -182 -340
l-116 -225 -54 3 c-63 4 -98 -16 -126 -71 -35 -66 10 -159 82 -173 83 -15 165
80 135 159 -9 23 4 55 117 274 157 304 351 646 594 1043 176 288 495 884 611
1142 103 228 101 214 94 718 -7 462 -12 570 -52 965 -25 253 -45 534 -45 657
l0 66 43 21 c58 28 91 80 91 141 0 106 -105 173 -190 121z"/>
<path d="M5126 7998 c-39 -39 -51 -91 -36 -150 11 -38 59 -99 87 -109 8 -3 -5
-118 -48 -409 -32 -223 -59 -410 -59 -417 0 -6 -19 -22 -42 -35 -140 -77 -100
-298 53 -298 l36 0 356 -747 c471 -989 474 -995 642 -1313 140 -265 145 -277
139 -321 -14 -108 82 -184 180 -141 53 24 76 62 76 127 0 38 -6 52 -34 83 -32
34 -38 37 -88 36 -29 0 -62 -3 -73 -5 -38 -8 -330 578 -1131 2263 -17 36 -17
37 9 68 73 86 52 211 -43 250 -20 8 -30 19 -30 34 0 28 108 818 112 820 2 1
19 9 39 18 43 19 69 68 69 128 0 83 -61 150 -137 150 -37 0 -50 -5 -77 -32z"/>
<path d="M15200 8004 c-41 -35 -60 -74 -60 -124 0 -60 26 -109 69 -128 20 -9
37 -17 39 -18 4 -2 112 -792 112 -820 0 -15 -10 -26 -30 -34 -95 -39 -116
-164 -43 -250 26 -31 26 -32 9 -68 -801 -1685 -1093 -2271 -1131 -2263 -11 2
-44 5 -73 5 -50 1 -56 -2 -88 -36 -28 -31 -34 -45 -34 -83 0 -65 23 -103 76
-127 98 -43 194 33 180 141 -6 44 -1 56 139 321 168 318 171 324 642 1313
l356 747 36 0 c153 0 193 221 53 298 -23 13 -42 29 -42 35 0 7 -27 194 -59
417 -43 291 -56 406 -48 409 28 10 76 71 87 109 15 59 3 111 -36 150 -43 43
-107 45 -154 6z"/>
<path d="M6020 6912 c-39 -21 -70 -72 -70 -117 0 -73 70 -145 141 -145 37 0
41 -4 116 -102 42 -57 153 -201 246 -321 l170 -219 -17 -34 c-20 -43 -21 -106
-1 -143 18 -35 68 -79 100 -87 28 -7 29 -19 46 -424 l12 -275 -26 -39 c-65
-95 2 -213 126 -224 l54 -4 243 -243 c219 -219 241 -244 231 -263 -30 -55 -1
-155 59 -206 47 -39 117 -37 165 5 112 98 14 289 -136 265 l-39 -6 -238 234
-237 234 18 30 c53 91 -15 225 -123 239 -22 3 -40 6 -41 7 0 0 -8 147 -18 326
l-19 325 39 33 c66 57 71 142 12 212 -34 41 -73 60 -122 60 l-41 0 -202 253
c-111 138 -226 281 -255 315 l-54 64 31 34 c24 28 30 44 30 82 0 111 -108 184
-200 134z"/>
<path d="M14340 6913 c-82 -43 -107 -151 -50 -217 l31 -34 -54 -64 c-29 -34
-144 -177 -255 -315 l-202 -253 -41 0 c-49 0 -88 -19 -123 -60 -58 -70 -53
-155 13 -212 l39 -33 -19 -325 c-10 -179 -18 -326 -18 -326 -1 -1 -19 -4 -41
-7 -108 -14 -176 -148 -122 -239 l17 -30 -237 -234 -238 -234 -39 6 c-51 8
-100 -9 -138 -49 -64 -66 -63 -159 3 -216 47 -42 117 -44 164 -5 60 51 89 151
59 206 -10 19 12 44 231 263 l243 243 54 4 c124 11 191 129 126 224 l-26 39
12 275 c17 405 18 417 46 424 32 8 82 52 100 87 20 37 19 100 -1 143 l-17 34
170 219 c93 120 204 264 246 321 73 95 80 102 113 102 97 0 164 94 135 190
-22 73 -112 109 -181 73z"/>
</g>
</svg>
